<?xml version="1.0" encoding="UTF-8"?>
<svg version="1.1" xmlns="http://www.w3.org/2000/svg" width="512" height="512">
<path d="M0 0 C1.25233429 -0.00524185 2.50466858 -0.0104837 3.79495239 -0.0158844 C6.43605314 -0.0222894 9.07628395 -0.02244048 11.71728516 -0.01245117 C14.40770554 -0.00325858 17.09725865 -0.01018579 19.78759766 -0.03295898 C23.69199627 -0.06377941 27.59549862 -0.06703017 31.5 -0.0625 C32.69196991 -0.07373398 33.88393982 -0.08496796 35.11203003 -0.09654236 C45.64233354 -0.00947914 53.52336683 2.41300691 61.203125 9.72265625 C69.36603237 18.03743167 71.43774222 27.17681787 72.1328125 38.55859375 C72.21015625 39.61046875 72.2875 40.66234375 72.3671875 41.74609375 C72.55350398 44.3079454 72.72510281 46.8698497 72.8828125 49.43359375 C99.85588051 62.67214339 131.59907273 66.73838749 160.57958984 57.25585938 C166.85244243 55.01640978 172.90644491 52.36683216 178.8828125 49.43359375 C178.93179687 48.32242188 178.98078125 47.21125 179.03125 46.06640625 C180.32549859 19.24921344 180.32549859 19.24921344 189.8828125 9.43359375 C199.56725003 1.91616898 207.73364556 -0.02716944 219.81640625 0.03515625 C221.66517113 0.03085098 221.66517113 0.03085098 223.55128479 0.02645874 C226.14918479 0.02442373 228.7471003 0.02991403 231.3449707 0.04248047 C235.30389976 0.05852722 239.26180579 0.04261844 243.22070312 0.0234375 C245.7526064 0.0254203 248.28450905 0.02926473 250.81640625 0.03515625 C251.99166367 0.02908356 253.16692108 0.02301086 254.37779236 0.01675415 C265.61133539 0.11205473 273.71804685 2.51484741 281.8828125 10.43359375 C289.73501973 19.6543774 291.13302054 28.885968 290.83935547 40.72680664 C290.05867164 53.36526617 290.05867164 53.36526617 294.4453125 64.6328125 C297.09147243 67.18564061 300.08960601 69.20736156 303.16357422 71.2109375 C315.41406597 79.92301684 321.74076083 96.89944687 328.12744141 109.87109375 C329.80473085 113.27512817 331.50467957 116.66704377 333.20703125 120.05859375 C347.36963652 148.56671225 358.40207285 178.07758828 367.8828125 208.43359375 C368.21394043 209.49223633 368.54506836 210.55087891 368.88623047 211.64160156 C372.40984158 223.13844861 374.87520596 234.82117998 377.1328125 246.62109375 C377.502854 248.54453613 377.502854 248.54453613 377.88037109 250.50683594 C380.92964947 267.12276533 382.32682829 283.67218573 382.3203125 300.55859375 C382.32141525 301.82153259 382.32141525 301.82153259 382.32254028 303.10998535 C382.26199353 329.69659982 377.43092012 361.41580506 358.59375 381.84765625 C348.39497845 391.30131207 337.87844964 395.11301749 324.14379883 394.97021484 C303.91043944 394.16143825 285.60081888 381.60102 271.8828125 367.43359375 C263.82905138 358.41453389 256.74941537 348.64994617 249.65429688 338.87402344 C247.95918458 336.53880535 246.25756403 334.20846564 244.5546875 331.87890625 C240.05677434 325.70541913 235.59567744 319.51806075 231.3203125 313.1875 C230.73451416 312.32060547 230.14871582 311.45371094 229.54516602 310.56054688 C228.4218779 308.89048058 227.30484038 307.2161876 226.19506836 305.53710938 C225.68854736 304.78236328 225.18202637 304.02761719 224.66015625 303.25 C224.21921631 302.58427979 223.77827637 301.91855957 223.32397461 301.23266602 C221.66888563 299.16653851 220.15583526 297.79740741 217.8828125 296.43359375 C215.84455384 296.1997953 215.84455384 296.1997953 213.74609375 296.6015625 C212.95541504 296.72063965 212.16473633 296.8397168 211.35009766 296.96240234 C207.22007252 297.75113661 203.15064141 298.73494461 199.0703125 299.74609375 C190.18917822 301.85588289 181.29507923 303.40578473 172.2578125 304.68359375 C171.10949951 304.84641846 169.96118652 305.00924316 168.77807617 305.17700195 C154.77718581 307.08589172 140.99557895 307.67433876 126.8828125 307.68359375 C125.4908667 307.68460587 125.4908667 307.68460587 124.07080078 307.68563843 C95.99003138 307.65335544 68.65138016 304.18305335 41.45825195 297.02636719 C37.71401388 296.16457839 35.49469361 296.01716978 31.8828125 297.43359375 C26.9160302 302.85582567 22.90526969 309.2113232 18.8203125 315.30859375 C8.31102622 330.81151321 -2.9739073 345.70021523 -14.55834961 360.41137695 C-16.13612576 362.45816158 -17.64145118 364.54809738 -19.15234375 366.64453125 C-28.83603992 379.58414426 -49.32029252 391.6772875 -65.1171875 394.43359375 C-79.76638753 396.07764132 -91.63897175 393.98793758 -103.484375 384.80859375 C-120.99795584 369.00999264 -128.53378831 340.91248844 -130.29937744 318.07723999 C-130.59394097 312.301017 -130.59693472 306.5282577 -130.5546875 300.74609375 C-130.55164612 299.85718445 -130.54860474 298.96827515 -130.54547119 298.0524292 C-130.21812032 232.86886827 -106.22322197 170.45379791 -77.74804688 112.75537109 C-76.25088662 109.70591564 -74.78055802 106.64538238 -73.3203125 103.578125 C-68.74001566 94.03758279 -64.01540119 85.53413694 -57.1171875 77.43359375 C-56.364375 76.54285156 -55.6115625 75.65210938 -54.8359375 74.734375 C-48.90941343 67.94525753 -48.90941343 67.94525753 -46.08764648 66.12280273 C-42.31641741 63.50485985 -40.38684165 61.72829718 -39.42895508 57.12915039 C-39.2110423 53.10588745 -39.2016761 49.14606419 -39.3046875 45.12109375 C-39.47304938 32.00585802 -38.98354953 20.82265708 -30.1171875 10.43359375 C-20.90076748 1.64385984 -12.39275068 -0.03041812 0 0 Z M-6.1171875 33.43359375 C-6.1171875 36.73359375 -6.1171875 40.03359375 -6.1171875 43.43359375 C-5.06660156 43.22863281 -4.01601562 43.02367187 -2.93359375 42.8125 C-1.51566013 42.54018162 -0.09768935 42.26805664 1.3203125 41.99609375 C2.00802734 41.86138672 2.69574219 41.72667969 3.40429688 41.58789062 C12.0512747 39.93893206 20.65932421 39.26430379 29.4453125 38.87109375 C30.81526367 38.80631836 30.81526367 38.80631836 32.21289062 38.74023438 C34.43609241 38.63547618 36.65937957 38.53330358 38.8828125 38.43359375 C38.3878125 35.95859375 38.3878125 35.95859375 37.8828125 33.43359375 C23.3628125 33.43359375 8.8428125 33.43359375 -6.1171875 33.43359375 Z M213.8828125 33.43359375 C213.5528125 35.08359375 213.2228125 36.73359375 212.8828125 38.43359375 C214.10613281 38.47097656 215.32945312 38.50835937 216.58984375 38.546875 C227.8773434 38.96233808 238.81006358 40.1069745 249.92871094 42.0859375 C252.57646909 42.55700292 255.22941775 42.99557303 257.8828125 43.43359375 C257.90970466 41.95452483 257.92915871 40.47531892 257.9453125 38.99609375 C257.95691406 38.17238281 257.96851563 37.34867188 257.98046875 36.5 C258.11548598 34.44195437 258.11548598 34.44195437 256.8828125 33.43359375 C255.53186268 33.34090376 254.17614159 33.31612049 252.82202148 33.32006836 C251.96120468 33.32014389 251.10038788 33.32021942 250.21348572 33.32029724 C248.81036888 33.32803917 248.81036888 33.32803917 247.37890625 33.3359375 C245.94938377 33.33805992 245.94938377 33.33805992 244.49098206 33.34022522 C241.43406085 33.34584223 238.37721173 33.35839759 235.3203125 33.37109375 C233.25325626 33.37610656 231.18619888 33.38066984 229.11914062 33.38476562 C224.04033662 33.39581719 218.9615868 33.4130932 213.8828125 33.43359375 Z M-29.1171875 95.43359375 C-36.56095335 104.77078823 -42.22175333 114.72438982 -47.4296875 125.43359375 C-48.16484907 126.92677122 -48.90003841 128.41993502 -49.63525391 129.91308594 C-70.78990058 173.12856061 -87.19157592 217.8944135 -95.1171875 265.43359375 C-95.32746582 266.69478027 -95.32746582 266.69478027 -95.54199219 267.98144531 C-96.25806499 272.45639885 -96.75567231 276.91694199 -97.1171875 281.43359375 C-97.21555908 282.65054932 -97.21555908 282.65054932 -97.31591797 283.89208984 C-99.06997252 306.96400647 -99.09904209 338.19055591 -83.66015625 357.23046875 C-82.22342844 358.75364827 -82.22342844 358.75364827 -80.1171875 360.43359375 C-79.7871875 360.76359375 -79.4571875 361.09359375 -79.1171875 361.43359375 C-68.42366436 362.88356299 -59.177626 356.98873811 -50.8671875 350.74609375 C-40.11453928 341.56444933 -32.14273535 329.24678442 -23.88867188 317.87402344 C-22.19355958 315.53880535 -20.49193903 313.20846564 -18.7890625 310.87890625 C-12.47170876 302.20949767 -6.32045753 293.44400615 -0.34155273 284.53710938 C0.16819092 283.78236328 0.67793457 283.02761719 1.203125 282.25 C1.64930176 281.58427979 2.09547852 280.91855957 2.55517578 280.23266602 C3.8828125 278.43359375 3.8828125 278.43359375 5.55029297 276.82006836 C7.11379207 275.5137612 7.11379207 275.5137612 6.8828125 273.43359375 C7.46933594 273.15386719 8.05585938 272.87414062 8.66015625 272.5859375 C10.72552896 271.51513794 12.53662264 270.31939709 14.4453125 268.99609375 C24.81320244 262.53050925 37.20647261 261.96879265 48.92578125 264.60546875 C50.97685522 265.12009945 53.02499728 265.64653242 55.0703125 266.18359375 C64.27516158 268.45439648 73.44415836 270.33292349 82.8203125 271.74609375 C83.86662842 271.9049707 84.91294434 272.06384766 85.9909668 272.22753906 C125.75982301 278.03228029 166.58689474 274.53071952 205.33203125 264.2734375 C216.1758499 261.70861791 227.43969089 263.2971292 237.1953125 268.71875 C246.20211191 275.03406443 252.11009514 284.07919128 258.03149414 293.14013672 C263.48090598 301.44634857 269.37051694 309.40289637 275.32421875 317.35205078 C276.68230336 319.16580852 278.0342756 320.98382889 279.3828125 322.8046875 C281.53206707 325.69466731 283.70220447 328.56721146 285.8828125 331.43359375 C286.3169043 332.00980469 286.75099609 332.58601563 287.19824219 333.1796875 C296.51530174 345.51550042 307.89319594 358.50874295 323.86328125 361.84765625 C327.51640131 362.19680401 329.93937551 362.06596999 333.0390625 359.98828125 C339.55283535 353.39934948 342.29100053 345.09959964 344.8828125 336.43359375 C345.09454102 335.76730957 345.30626953 335.10102539 345.52441406 334.41455078 C358.66108877 291.60064979 344.03696534 238.91270789 329.8828125 198.43359375 C329.50253906 197.34481934 329.12226563 196.25604492 328.73046875 195.13427734 C306.5412868 128.52819652 306.5412868 128.52819652 260.1328125 79.62109375 C244.87833378 72.3882221 223.26435711 67.28736962 206.59130859 72.09423828 C202.46895418 73.77213271 198.68523467 76.01153729 194.87207031 78.29150391 C185.72726302 83.5417995 175.7026532 87.46558965 165.5703125 90.30859375 C164.89049316 90.4996167 164.21067383 90.69063965 163.51025391 90.88745117 C151.89327353 93.93328253 140.4042818 94.78324278 128.45507812 94.74926758 C126.1492537 94.74611622 123.84472888 94.76963614 121.5390625 94.79492188 C98.71914346 94.89198719 78.19487051 89.00234976 57.85546875 78.93359375 C57.03240234 78.52689453 56.20933594 78.12019531 55.36132812 77.70117188 C53.68956861 76.84619006 52.03689183 75.95297216 50.40429688 75.02539062 C44.19136476 71.59436841 39.31670716 70.69361527 32.2578125 70.93359375 C31.30140869 70.95204346 30.34500488 70.97049316 29.35961914 70.98950195 C6.86844478 71.67253519 -13.3464565 78.93743272 -29.1171875 95.43359375 Z " fill="#3483BB" transform="translate(130.1171875,58.56640625)"/>
<path d="M0 0 C4.16519605 2.1408212 7.31327836 4.91613374 8.94140625 9.30859375 C9.4320036 14.109816 9.31709462 18.86392807 9.19140625 23.68359375 C9.17335938 24.99199219 9.1553125 26.30039063 9.13671875 27.6484375 C9.08969973 30.86924064 9.02398806 34.08853849 8.94140625 37.30859375 C9.59625 37.29812012 10.25109375 37.28764648 10.92578125 37.27685547 C13.93094957 37.23494016 16.93605609 37.20915566 19.94140625 37.18359375 C20.97136719 37.16683594 22.00132812 37.15007812 23.0625 37.1328125 C30.15136218 37.08766051 36.57157113 37.21180745 42.75390625 41.05859375 C46.64375332 45.05957931 48.12784274 48.65809629 48.44140625 54.18359375 C48.26674985 59.44710256 46.6778004 63.54613173 42.94140625 67.30859375 C38.52045528 69.92177768 35.34327297 70.67192219 30.23046875 70.6015625 C28.98652344 70.59189453 27.74257812 70.58222656 26.4609375 70.57226562 C25.17574219 70.54712891 23.89054687 70.52199219 22.56640625 70.49609375 C20.60380859 70.47579102 20.60380859 70.47579102 18.6015625 70.45507812 C15.38108781 70.41981745 12.16146019 70.37053008 8.94140625 70.30859375 C8.96759033 71.15043213 8.99377441 71.99227051 9.02075195 72.85961914 C9.10644263 76.01108371 9.16888061 79.16195069 9.21606445 82.31420898 C9.24106543 83.67313282 9.27507903 85.03192414 9.31860352 86.39038086 C9.71613046 99.12527336 9.71613046 99.12527336 6.58984375 103.62109375 C2.3890739 107.88382186 -1.00678301 109.45461884 -6.93359375 109.80859375 C-12.34409029 109.63722056 -16.01395686 107.84765103 -20.05859375 104.30859375 C-25.23938499 97.79082412 -24.18428768 89.32797359 -24.12109375 81.43359375 C-24.11658203 80.36367187 -24.11207031 79.29375 -24.10742188 78.19140625 C-24.09569124 75.56374389 -24.07927603 72.93619837 -24.05859375 70.30859375 C-25.23047241 70.34001465 -25.23047241 70.34001465 -26.42602539 70.37207031 C-29.99091549 70.45559558 -33.55559916 70.50737064 -37.12109375 70.55859375 C-38.35021484 70.59210938 -39.57933594 70.625625 -40.84570312 70.66015625 C-47.80484701 70.73518745 -52.49238756 70.67087332 -58.05859375 66.30859375 C-61.78059208 61.53680102 -62.71654574 57.77300748 -62.44140625 51.73828125 C-61.61435995 46.48906901 -59.30461577 43.33791628 -55.18359375 39.93359375 C-48.73016492 36.57781076 -41.78356976 37.18654556 -34.68359375 37.24609375 C-33.15025391 37.25286133 -33.15025391 37.25286133 -31.5859375 37.25976562 C-29.07676181 37.27149075 -26.56770885 37.28790199 -24.05859375 37.30859375 C-24.0743042 36.37176758 -24.0743042 36.37176758 -24.09033203 35.41601562 C-24.13227481 32.54691704 -24.15804028 29.67788327 -24.18359375 26.80859375 C-24.20035156 25.82632813 -24.21710938 24.8440625 -24.234375 23.83203125 C-24.28079403 16.86917672 -24.08526108 10.56573767 -20.30859375 4.49609375 C-14.65628626 -0.99920519 -7.51399057 -2.52367425 0 0 Z " fill="#2C8ABE" transform="translate(158.05859375,168.69140625)"/>
<path d="M0 0 C4.01998633 2.37038011 7.0147887 4.59778951 8.73828125 9.05859375 C10.20760765 15.19042831 9.97016816 19.45665643 6.73828125 25.05859375 C3.74990837 28.59745637 1.25660393 30.90274376 -3.26171875 32.05859375 C-8.89242496 32.5054752 -12.43129417 32.2788768 -17.26171875 29.05859375 C-21.40377527 24.86056349 -23.42090823 21.71508315 -23.57421875 15.80859375 C-23.52099654 10.71922006 -22.75973599 7.93477501 -19.26171875 4.05859375 C-13.70809012 -0.95321746 -7.1705125 -2.98461747 0 0 Z " fill="#3781BA" transform="translate(368.26171875,245.94140625)"/>
<path d="M0 0 C3.82362952 2.15595613 5.8470156 4.34067307 7.75 8.375 C9.34919656 14.46083134 8.95588314 18.81813588 5.75 24.375 C2.76162712 27.91386262 0.26832268 30.21915001 -4.25 31.375 C-9.88070621 31.82188145 -13.41957542 31.59528305 -18.25 28.375 C-22.39205652 24.17696974 -24.40918948 21.0314894 -24.5625 15.125 C-24.50927779 10.03562631 -23.74801724 7.25118126 -20.25 3.375 C-14.16476427 -2.11655419 -7.52526279 -3.38988473 0 0 Z " fill="#2293C3" transform="translate(369.25,169.625)"/>
<path d="M0 0 C3.8131565 4.03745982 5.312486 7.61799654 5.625 13.125 C5.44534873 18.53903612 3.73667412 22.24449972 0.125 26.25 C-4.91194695 30.08767387 -10.78263128 30.06715825 -16.875 29.25 C-21.70333008 26.87972887 -25.58659336 23.4710166 -27.625 18.375 C-28.32421108 12.43170586 -28.11714003 8.39270487 -24.875 3.25 C-21.7130107 -0.72507227 -18.96203574 -2.62438326 -14.05859375 -3.59765625 C-8.84647706 -3.9612923 -4.42807281 -2.69534867 0 0 Z " fill="#2C8ABE" transform="translate(333.875,209.75)"/>
<path d="M0 0 C3.6386994 3.85274054 5.29003187 7.34820048 5.5625 12.625 C5.36502623 17.50424781 4.08441848 21.34814765 1.125 25.25 C-3.81461954 29.28234248 -7.96446946 29.88796971 -14.2890625 29.63671875 C-19.28158217 28.89010327 -21.91382944 26.3150809 -25.1875 22.6875 C-28.12550561 18.44371412 -28.50251971 14.27912225 -27.875 9.25 C-26.49314563 4.64659358 -24.6011414 1.33068487 -20.4375 -1.1875 C-13.10918017 -4.40167536 -6.95904111 -4.23593807 0 0 Z " fill="#2C8ABE" transform="translate(410.875,209.75)"/>
</svg>
